<svg width="100" height="100" viewBox="0 0 100 100" fill="none" xmlns="http://www.w3.org/2000/svg">
<g clip-path="url(#clip0_5_20)">
<path d="M6.6846 75.0265C10.7066 81.9968 16.3535 87.8917 23.1445 92.2091C29.9356 96.5265 37.6694 99.1385 45.6873 99.8226L68.3304 60.6017L49.9968 50.0179L31.6759 60.5967L9.03902 21.3857C3.58418 29.1763 0.465134 38.3616 0.0480917 47.8631C-0.368951 57.3646 1.93333 66.7878 6.6846 75.0265Z" fill="#34A853"/>
<path d="M49.9968 1.67035e-06C41.9495 -0.00207969 34.021 1.941 26.8865 5.66373C19.752 9.38647 13.6229 14.7786 9.02132 21.3807L31.6643 60.6017L49.9968 50.0179V28.8596H95.269C91.2499 20.2404 84.8555 12.9468 76.8364 7.83491C68.8173 2.72301 59.5064 0.0050174 49.9968 1.67035e-06Z" fill="#E94135"/>
<path d="M93.3055 75.0265C97.3302 68.0582 99.6113 60.2204 99.9545 52.1806C100.298 44.1408 98.6931 36.1371 95.277 28.8511H49.9914V50.0191L68.3138 60.5978L45.6766 99.8099C55.1507 100.638 64.6645 98.7468 73.1011 94.3568C81.5376 89.9669 88.5468 83.261 93.3055 75.0265Z" fill="#FABB08"/>
<path d="M49.9948 71.187C61.6825 71.187 71.1573 61.7117 71.1573 50.0233C71.1573 38.3349 61.6825 28.8596 49.9948 28.8596C38.3072 28.8596 28.8324 38.3349 28.8324 50.0233C28.8324 61.7117 38.3072 71.187 49.9948 71.187Z" fill="white"/>
<path d="M49.9948 66.3771C59.0262 66.3771 66.3476 59.0552 66.3476 50.0233C66.3476 40.9914 59.0262 33.6695 49.9948 33.6695C40.9635 33.6695 33.6421 40.9914 33.6421 50.0233C33.6421 59.0552 40.9635 66.3771 49.9948 66.3771Z" fill="#4285F4"/>
</g>
<defs>
<clipPath id="clip0_5_20">
<rect width="100" height="100" fill="white"/>
</clipPath>
</defs>
</svg>
