<svg width="103" height="100" viewBox="0 0 103 100" fill="none" xmlns="http://www.w3.org/2000/svg">
<g clip-path="url(#clip0_3_14)">
<path fill-rule="evenodd" clip-rule="evenodd" d="M50.8896 0C22.749 0 0 22.9167 0 51.2677C0 73.9302 14.576 93.1135 34.7969 99.9031C37.325 100.414 38.251 98.8 38.251 97.4427C38.251 96.2542 38.1677 92.1802 38.1677 87.9354C24.0115 90.9917 21.0635 81.824 21.0635 81.824C18.7885 75.8823 15.4177 74.3552 15.4177 74.3552C10.7844 71.2146 15.7552 71.2146 15.7552 71.2146C20.8948 71.5542 23.5917 76.4771 23.5917 76.4771C28.1406 84.2854 35.4708 82.0792 38.4198 80.7208C38.8406 77.4104 40.1896 75.1187 41.6219 73.8458C30.3312 72.6573 18.4521 68.2437 18.4521 48.551C18.4521 42.949 20.4729 38.3656 23.675 34.801C23.1698 33.5281 21.4 28.2646 24.1812 21.2198C24.1812 21.2198 28.4781 19.8615 38.1667 26.4823C42.3147 25.3601 46.5924 24.7892 50.8896 24.7844C55.1865 24.7844 59.5667 25.3792 63.6115 26.4823C73.301 19.8615 77.5979 21.2198 77.5979 21.2198C80.3792 28.2646 78.6083 33.5281 78.1031 34.801C81.3896 38.3656 83.3271 42.949 83.3271 48.551C83.3271 68.2437 71.4479 72.5719 60.0729 73.8458C61.9271 75.4583 63.5271 78.5135 63.5271 83.3521C63.5271 90.2271 63.4437 95.7448 63.4437 97.4417C63.4437 98.8 64.3708 100.414 66.8979 99.9042C87.1187 93.1125 101.695 73.9302 101.695 51.2677C101.778 22.9167 78.9458 0 50.8896 0Z" fill="#6030A6"/>
</g>
<defs>
<clipPath id="clip0_3_14">
<rect width="102.083" height="100" fill="white"/>
</clipPath>
</defs>
</svg>
